<svg width="20" height="22" viewBox="0 0 20 22" fill="none" xmlns="http://www.w3.org/2000/svg">
<path d="M2.6875 13.25C2.6875 14.1451 3.04308 15.0036 3.67601 15.6365C4.30895 16.2694 5.16739 16.625 6.0625 16.625H14.5C15.1584 16.6257 15.7961 16.3954 16.3022 15.9743C16.8082 15.5531 17.1505 14.9678 17.2693 14.3202C17.3882 13.6727 17.2761 13.004 16.9526 12.4306C16.6291 11.8571 16.1147 11.4154 15.499 11.1823C15.6382 10.7864 15.6639 10.3596 15.5733 9.9499C15.4826 9.54023 15.2792 9.16406 14.9861 8.86388C14.6929 8.56371 14.3217 8.35148 13.9143 8.25118C13.5069 8.15087 13.0795 8.16649 12.6805 8.29625C12.4224 7.30627 11.7892 6.4556 10.9148 5.92439C10.0405 5.39318 8.9937 5.22313 7.99616 5.45027C6.99862 5.6774 6.12866 6.28388 5.57049 7.14126C5.01232 7.99865 4.80978 9.03963 5.00575 10.0438C4.33119 10.2664 3.74402 10.6961 3.32781 11.2717C2.91159 11.8474 2.68753 12.5396 2.6875 13.25Z" stroke="#DEDEDF" stroke-linecap="round" stroke-linejoin="round"/>
<path d="M8 13L10 11L12 13" stroke="#EC5D4E" stroke-linecap="round" stroke-linejoin="round"/>
</svg>
