<svg width="20" height="22" viewBox="0 0 20 22" fill="none" xmlns="http://www.w3.org/2000/svg">
<path d="M2.6875 13.25C2.6875 14.1451 3.04308 15.0036 3.67601 15.6365C4.30895 16.2694 5.16739 16.625 6.0625 16.625H14.5C15.1584 16.6257 15.7961 16.3954 16.3022 15.9743C16.8082 15.5531 17.1505 14.9678 17.2693 14.3202C17.3882 13.6727 17.2761 13.004 16.9526 12.4306C16.6291 11.8571 16.1147 11.4154 15.499 11.1823C15.6382 10.7864 15.6639 10.3596 15.5733 9.9499C15.4826 9.54023 15.2792 9.16406 14.9861 8.86388C14.6929 8.56371 14.3217 8.35148 13.9143 8.25118C13.5069 8.15087 13.0795 8.16649 12.6805 8.29625C12.4224 7.30627 11.7892 6.4556 10.9148 5.92439C10.0405 5.39318 8.9937 5.22313 7.99616 5.45027C6.99862 5.6774 6.12866 6.28388 5.57049 7.14126C5.01232 7.99865 4.80978 9.03963 5.00575 10.0438C4.33119 10.2664 3.74402 10.6961 3.32781 11.2717C2.91159 11.8474 2.68753 12.5396 2.6875 13.25Z" stroke="black"/>
<path d="M8.3042 12.4219L8.29956 12.0508C8.29338 11.8312 8.31966 11.6364 8.37842 11.4663C8.44027 11.2962 8.53923 11.1416 8.67529 11.0024C8.81136 10.8602 8.98454 10.7257 9.19482 10.5989C9.38037 10.4845 9.52881 10.3762 9.64014 10.2742C9.75146 10.169 9.83032 10.0562 9.87671 9.93555C9.92619 9.81494 9.95093 9.67733 9.95093 9.52271V9.51343C9.95093 9.33716 9.90763 9.18099 9.82104 9.04492C9.73755 8.90885 9.61694 8.80216 9.45923 8.72485C9.30461 8.64445 9.12215 8.60425 8.91187 8.60425C8.69849 8.60425 8.51294 8.64445 8.35522 8.72485C8.19751 8.80526 8.07227 8.92122 7.97949 9.07275C7.88672 9.22119 7.83415 9.39591 7.82178 9.59692L7.8125 9.60156L6.85229 9.6062V9.59692C6.86776 9.25057 6.95589 8.93823 7.1167 8.65991C7.2806 8.3785 7.51717 8.15739 7.82642 7.99658C8.13566 7.83268 8.51294 7.75073 8.95825 7.75073C9.36955 7.75073 9.72827 7.8265 10.0344 7.97803C10.3437 8.12646 10.5833 8.33057 10.7534 8.59033C10.9266 8.84701 11.0132 9.14079 11.0132 9.47168V9.48096C11.0132 9.71908 10.9745 9.93555 10.8972 10.1304C10.8199 10.3221 10.7086 10.4953 10.5632 10.6499C10.4179 10.8014 10.2416 10.939 10.0344 11.0627C9.83651 11.1803 9.68188 11.2916 9.57056 11.3967C9.45923 11.4988 9.38037 11.6086 9.33398 11.7261C9.29069 11.8405 9.26904 11.9781 9.26904 12.1389V12.4219H8.3042ZM8.84229 14.6021C8.62891 14.6021 8.45573 14.5387 8.32275 14.4119C8.18978 14.2851 8.12329 14.1181 8.12329 13.9109C8.12329 13.7006 8.18978 13.5321 8.32275 13.4053C8.45573 13.2754 8.62891 13.2104 8.84229 13.2104C9.05876 13.2104 9.23193 13.2754 9.36182 13.4053C9.4917 13.5321 9.55664 13.7006 9.55664 13.9109C9.55664 14.1181 9.4917 14.2851 9.36182 14.4119C9.23193 14.5387 9.05876 14.6021 8.84229 14.6021Z" fill="#EC5D4E"/>
</svg>
