<svg width="600" height="400" viewBox="0 0 600 400" fill="none" xmlns="http://www.w3.org/2000/svg">
<g clip-path="url(#clip0_4_37)">
<path d="M600 0H0V400H600V0Z" fill="url(#paint0_linear_4_37)"/>
<path d="M214.11 279H211.192V269.545H214.239C215.156 269.545 215.941 269.735 216.594 270.113C217.246 270.489 217.746 271.029 218.094 271.734C218.442 272.435 218.616 273.276 218.616 274.254C218.616 275.239 218.44 276.087 218.089 276.798C217.738 277.506 217.228 278.051 216.557 278.432C215.886 278.811 215.07 279 214.11 279ZM212.337 277.984H214.036C214.818 277.984 215.466 277.834 215.98 277.532C216.494 277.23 216.877 276.801 217.129 276.244C217.381 275.687 217.508 275.024 217.508 274.254C217.508 273.491 217.383 272.834 217.134 272.283C216.884 271.729 216.512 271.304 216.016 271.009C215.521 270.71 214.904 270.561 214.165 270.561H212.337V277.984ZM220.388 279V271.909H221.441V272.98H221.515C221.644 272.629 221.878 272.345 222.216 272.126C222.555 271.908 222.937 271.798 223.361 271.798C223.441 271.798 223.541 271.8 223.661 271.803C223.781 271.806 223.872 271.811 223.934 271.817V272.925C223.897 272.915 223.812 272.902 223.68 272.883C223.551 272.862 223.414 272.851 223.269 272.851C222.924 272.851 222.616 272.923 222.346 273.068C222.078 273.209 221.866 273.406 221.709 273.659C221.555 273.908 221.478 274.193 221.478 274.513V279H220.388ZM227.312 279.166C226.862 279.166 226.455 279.082 226.088 278.912C225.722 278.74 225.431 278.492 225.216 278.169C225.001 277.843 224.893 277.449 224.893 276.987C224.893 276.581 224.973 276.252 225.133 275.999C225.293 275.744 225.507 275.544 225.775 275.399C226.042 275.254 226.338 275.147 226.661 275.076C226.987 275.002 227.315 274.944 227.644 274.901C228.075 274.845 228.424 274.804 228.692 274.776C228.963 274.745 229.16 274.694 229.283 274.624C229.409 274.553 229.472 274.43 229.472 274.254V274.217C229.472 273.762 229.348 273.408 229.098 273.156C228.852 272.903 228.478 272.777 227.977 272.777C227.456 272.777 227.049 272.891 226.753 273.119C226.458 273.346 226.25 273.589 226.13 273.848L225.096 273.479C225.281 273.048 225.527 272.712 225.835 272.472C226.145 272.229 226.484 272.06 226.85 271.964C227.22 271.866 227.583 271.817 227.94 271.817C228.167 271.817 228.429 271.844 228.724 271.9C229.023 271.952 229.311 272.061 229.588 272.228C229.868 272.394 230.1 272.645 230.285 272.98C230.47 273.316 230.562 273.765 230.562 274.328V279H229.472V278.04H229.417C229.343 278.194 229.22 278.358 229.048 278.534C228.875 278.709 228.646 278.858 228.36 278.982C228.074 279.105 227.724 279.166 227.312 279.166ZM227.478 278.188C227.909 278.188 228.272 278.103 228.568 277.934C228.866 277.764 229.091 277.546 229.242 277.278C229.395 277.01 229.472 276.729 229.472 276.433V275.436C229.426 275.491 229.325 275.542 229.168 275.588C229.014 275.632 228.835 275.67 228.632 275.704C228.432 275.735 228.237 275.762 228.046 275.787C227.858 275.808 227.706 275.827 227.589 275.842C227.306 275.879 227.041 275.939 226.795 276.022C226.552 276.102 226.355 276.224 226.204 276.387C226.056 276.547 225.982 276.766 225.982 277.043C225.982 277.421 226.122 277.707 226.402 277.901C226.686 278.092 227.044 278.188 227.478 278.188ZM235.413 281.807C234.886 281.807 234.434 281.739 234.055 281.604C233.677 281.471 233.361 281.296 233.109 281.077C232.86 280.862 232.661 280.631 232.513 280.385L233.381 279.776C233.48 279.905 233.604 280.053 233.755 280.219C233.906 280.388 234.112 280.534 234.374 280.657C234.639 280.783 234.985 280.847 235.413 280.847C235.985 280.847 236.457 280.708 236.83 280.431C237.202 280.154 237.388 279.72 237.388 279.129V277.689H237.296C237.216 277.818 237.102 277.978 236.955 278.169C236.81 278.357 236.601 278.525 236.327 278.672C236.056 278.817 235.69 278.889 235.228 278.889C234.655 278.889 234.142 278.754 233.686 278.483C233.234 278.212 232.875 277.818 232.61 277.301C232.349 276.784 232.218 276.156 232.218 275.418C232.218 274.691 232.346 274.059 232.601 273.52C232.857 272.979 233.212 272.56 233.668 272.265C234.123 271.966 234.649 271.817 235.246 271.817C235.708 271.817 236.074 271.894 236.345 272.048C236.619 272.198 236.828 272.371 236.973 272.565C237.121 272.755 237.235 272.912 237.315 273.036H237.425V271.909H238.478V279.203C238.478 279.812 238.339 280.308 238.062 280.69C237.789 281.074 237.419 281.356 236.955 281.534C236.493 281.716 235.979 281.807 235.413 281.807ZM235.376 277.911C235.813 277.911 236.182 277.81 236.484 277.61C236.785 277.41 237.015 277.123 237.171 276.747C237.328 276.372 237.407 275.922 237.407 275.399C237.407 274.888 237.33 274.437 237.176 274.047C237.022 273.656 236.794 273.349 236.493 273.128C236.191 272.906 235.819 272.795 235.376 272.795C234.914 272.795 234.529 272.912 234.222 273.146C233.917 273.38 233.688 273.694 233.534 274.088C233.383 274.482 233.307 274.919 233.307 275.399C233.307 275.892 233.384 276.327 233.538 276.706C233.695 277.081 233.926 277.377 234.231 277.592C234.539 277.804 234.92 277.911 235.376 277.911ZM247.212 271.909V272.832H243.538V271.909H247.212ZM244.609 270.21H245.698V276.969C245.698 277.277 245.743 277.507 245.832 277.661C245.924 277.812 246.041 277.914 246.183 277.966C246.327 278.015 246.48 278.04 246.64 278.04C246.76 278.04 246.858 278.034 246.935 278.021C247.012 278.006 247.074 277.994 247.12 277.984L247.342 278.963C247.268 278.991 247.165 279.018 247.032 279.046C246.9 279.077 246.732 279.092 246.529 279.092C246.221 279.092 245.92 279.026 245.624 278.894C245.332 278.761 245.089 278.56 244.895 278.289C244.704 278.018 244.609 277.677 244.609 277.264V270.21ZM251.656 279.148C251.016 279.148 250.454 278.995 249.971 278.691C249.491 278.386 249.115 277.96 248.844 277.412C248.576 276.864 248.443 276.224 248.443 275.491C248.443 274.753 248.576 274.108 248.844 273.557C249.115 273.006 249.491 272.578 249.971 272.274C250.454 271.969 251.016 271.817 251.656 271.817C252.296 271.817 252.856 271.969 253.336 272.274C253.819 272.578 254.195 273.006 254.462 273.557C254.733 274.108 254.869 274.753 254.869 275.491C254.869 276.224 254.733 276.864 254.462 277.412C254.195 277.96 253.819 278.386 253.336 278.691C252.856 278.995 252.296 279.148 251.656 279.148ZM251.656 278.169C252.142 278.169 252.542 278.044 252.856 277.795C253.17 277.546 253.402 277.218 253.553 276.812C253.704 276.406 253.779 275.965 253.779 275.491C253.779 275.018 253.704 274.576 253.553 274.167C253.402 273.757 253.17 273.426 252.856 273.174C252.542 272.922 252.142 272.795 251.656 272.795C251.169 272.795 250.769 272.922 250.455 273.174C250.141 273.426 249.909 273.757 249.758 274.167C249.607 274.576 249.532 275.018 249.532 275.491C249.532 275.965 249.607 276.406 249.758 276.812C249.909 277.218 250.141 277.546 250.455 277.795C250.769 278.044 251.169 278.169 251.656 278.169ZM260.724 279H259.523L262.995 269.545H264.177L267.648 279H266.448L263.623 271.041H263.549L260.724 279ZM261.167 275.307H266.005V276.322H261.167V275.307ZM268.973 281.659V271.909H270.026V273.036H270.155C270.235 272.912 270.346 272.755 270.487 272.565C270.632 272.371 270.838 272.198 271.106 272.048C271.377 271.894 271.743 271.817 272.205 271.817C272.802 271.817 273.328 271.966 273.784 272.265C274.239 272.563 274.595 272.986 274.85 273.534C275.105 274.082 275.233 274.728 275.233 275.473C275.233 276.224 275.105 276.875 274.85 277.426C274.595 277.974 274.241 278.398 273.788 278.7C273.336 278.998 272.814 279.148 272.223 279.148C271.768 279.148 271.403 279.072 271.129 278.922C270.855 278.768 270.644 278.594 270.497 278.4C270.349 278.203 270.235 278.04 270.155 277.911H270.063V281.659H268.973ZM270.044 275.455C270.044 275.99 270.123 276.462 270.28 276.872C270.437 277.278 270.666 277.597 270.968 277.827C271.269 278.055 271.638 278.169 272.076 278.169C272.531 278.169 272.911 278.049 273.216 277.809C273.524 277.566 273.754 277.24 273.908 276.83C274.065 276.418 274.144 275.959 274.144 275.455C274.144 274.956 274.067 274.507 273.913 274.107C273.762 273.703 273.533 273.385 273.225 273.151C272.92 272.914 272.537 272.795 272.076 272.795C271.632 272.795 271.26 272.908 270.958 273.132C270.657 273.354 270.429 273.665 270.275 274.065C270.121 274.462 270.044 274.925 270.044 275.455ZM276.895 281.659V271.909H277.948V273.036H278.077C278.157 272.912 278.268 272.755 278.409 272.565C278.554 272.371 278.76 272.198 279.028 272.048C279.299 271.894 279.665 271.817 280.127 271.817C280.724 271.817 281.25 271.966 281.705 272.265C282.161 272.563 282.516 272.986 282.772 273.534C283.027 274.082 283.155 274.728 283.155 275.473C283.155 276.224 283.027 276.875 282.772 277.426C282.516 277.974 282.163 278.398 281.71 278.7C281.258 278.998 280.736 279.148 280.145 279.148C279.69 279.148 279.325 279.072 279.051 278.922C278.777 278.768 278.566 278.594 278.419 278.4C278.271 278.203 278.157 278.04 278.077 277.911H277.985V281.659H276.895ZM277.966 275.455C277.966 275.99 278.045 276.462 278.202 276.872C278.359 277.278 278.588 277.597 278.889 277.827C279.191 278.055 279.56 278.169 279.997 278.169C280.453 278.169 280.833 278.049 281.138 277.809C281.445 277.566 281.676 277.24 281.83 276.83C281.987 276.418 282.066 275.959 282.066 275.455C282.066 274.956 281.989 274.507 281.835 274.107C281.684 273.703 281.455 273.385 281.147 273.151C280.842 272.914 280.459 272.795 279.997 272.795C279.554 272.795 279.182 272.908 278.88 273.132C278.579 273.354 278.351 273.665 278.197 274.065C278.043 274.462 277.966 274.925 277.966 275.455ZM285.906 269.545V279H284.817V269.545H285.906ZM287.902 279V271.909H288.991V279H287.902ZM288.456 270.727C288.244 270.727 288.06 270.655 287.907 270.51C287.756 270.366 287.68 270.192 287.68 269.989C287.68 269.786 287.756 269.612 287.907 269.467C288.06 269.322 288.244 269.25 288.456 269.25C288.668 269.25 288.85 269.322 289.001 269.467C289.155 269.612 289.231 269.786 289.231 269.989C289.231 270.192 289.155 270.366 289.001 270.51C288.85 270.655 288.668 270.727 288.456 270.727ZM293.868 279.148C293.203 279.148 292.63 278.991 292.15 278.677C291.67 278.363 291.301 277.931 291.042 277.38C290.784 276.829 290.655 276.199 290.655 275.491C290.655 274.771 290.787 274.136 291.052 273.585C291.319 273.031 291.692 272.598 292.169 272.288C292.649 271.974 293.209 271.817 293.849 271.817C294.348 271.817 294.797 271.909 295.197 272.094C295.597 272.278 295.925 272.537 296.18 272.869C296.436 273.202 296.594 273.589 296.656 274.033H295.566C295.483 273.71 295.299 273.423 295.012 273.174C294.729 272.922 294.348 272.795 293.868 272.795C293.443 272.795 293.07 272.906 292.75 273.128C292.433 273.346 292.186 273.656 292.007 274.056C291.832 274.453 291.744 274.919 291.744 275.455C291.744 276.002 291.83 276.479 292.003 276.886C292.178 277.292 292.424 277.607 292.741 277.832C293.061 278.057 293.437 278.169 293.868 278.169C294.151 278.169 294.408 278.12 294.639 278.021C294.869 277.923 295.065 277.781 295.225 277.597C295.385 277.412 295.499 277.19 295.566 276.932H296.656C296.594 277.35 296.442 277.727 296.199 278.063C295.959 278.395 295.64 278.66 295.243 278.857C294.849 279.051 294.391 279.148 293.868 279.148ZM300.335 279.166C299.886 279.166 299.478 279.082 299.112 278.912C298.746 278.74 298.455 278.492 298.239 278.169C298.024 277.843 297.916 277.449 297.916 276.987C297.916 276.581 297.996 276.252 298.156 275.999C298.316 275.744 298.53 275.544 298.798 275.399C299.066 275.254 299.361 275.147 299.684 275.076C300.011 275.002 300.338 274.944 300.668 274.901C301.099 274.845 301.448 274.804 301.716 274.776C301.986 274.745 302.183 274.694 302.307 274.624C302.433 274.553 302.496 274.43 302.496 274.254V274.217C302.496 273.762 302.371 273.408 302.122 273.156C301.876 272.903 301.502 272.777 301 272.777C300.48 272.777 300.072 272.891 299.777 273.119C299.481 273.346 299.273 273.589 299.153 273.848L298.119 273.479C298.304 273.048 298.55 272.712 298.858 272.472C299.169 272.229 299.507 272.06 299.874 271.964C300.243 271.866 300.606 271.817 300.963 271.817C301.191 271.817 301.452 271.844 301.748 271.9C302.046 271.952 302.334 272.061 302.611 272.228C302.891 272.394 303.124 272.645 303.308 272.98C303.493 273.316 303.585 273.765 303.585 274.328V279H302.496V278.04H302.44C302.367 278.194 302.243 278.358 302.071 278.534C301.899 278.709 301.669 278.858 301.383 278.982C301.097 279.105 300.748 279.166 300.335 279.166ZM300.501 278.188C300.932 278.188 301.295 278.103 301.591 277.934C301.889 277.764 302.114 277.546 302.265 277.278C302.419 277.01 302.496 276.729 302.496 276.433V275.436C302.45 275.491 302.348 275.542 302.191 275.588C302.037 275.632 301.859 275.67 301.656 275.704C301.456 275.735 301.26 275.762 301.069 275.787C300.882 275.808 300.729 275.827 300.612 275.842C300.329 275.879 300.064 275.939 299.818 276.022C299.575 276.102 299.378 276.224 299.227 276.387C299.08 276.547 299.006 276.766 299.006 277.043C299.006 277.421 299.146 277.707 299.426 277.901C299.709 278.092 300.068 278.188 300.501 278.188ZM308.658 271.909V272.832H304.983V271.909H308.658ZM306.054 270.21H307.143V276.969C307.143 277.277 307.188 277.507 307.277 277.661C307.37 277.812 307.487 277.914 307.628 277.966C307.773 278.015 307.925 278.04 308.085 278.04C308.205 278.04 308.304 278.034 308.381 278.021C308.458 278.006 308.519 277.994 308.565 277.984L308.787 278.963C308.713 278.991 308.61 279.018 308.478 279.046C308.345 279.077 308.178 279.092 307.974 279.092C307.667 279.092 307.365 279.026 307.07 278.894C306.777 278.761 306.534 278.56 306.34 278.289C306.149 278.018 306.054 277.677 306.054 277.264V270.21ZM310.296 279V271.909H311.386V279H310.296ZM310.85 270.727C310.638 270.727 310.455 270.655 310.301 270.51C310.15 270.366 310.075 270.192 310.075 269.989C310.075 269.786 310.15 269.612 310.301 269.467C310.455 269.322 310.638 269.25 310.85 269.25C311.063 269.25 311.244 269.322 311.395 269.467C311.549 269.612 311.626 269.786 311.626 269.989C311.626 270.192 311.549 270.366 311.395 270.51C311.244 270.655 311.063 270.727 310.85 270.727ZM316.262 279.148C315.622 279.148 315.06 278.995 314.577 278.691C314.097 278.386 313.722 277.96 313.451 277.412C313.183 276.864 313.049 276.224 313.049 275.491C313.049 274.753 313.183 274.108 313.451 273.557C313.722 273.006 314.097 272.578 314.577 272.274C315.06 271.969 315.622 271.817 316.262 271.817C316.902 271.817 317.462 271.969 317.943 272.274C318.426 272.578 318.801 273.006 319.069 273.557C319.34 274.108 319.475 274.753 319.475 275.491C319.475 276.224 319.34 276.864 319.069 277.412C318.801 277.96 318.426 278.386 317.943 278.691C317.462 278.995 316.902 279.148 316.262 279.148ZM316.262 278.169C316.748 278.169 317.148 278.044 317.462 277.795C317.776 277.546 318.009 277.218 318.159 276.812C318.31 276.406 318.386 275.965 318.386 275.491C318.386 275.018 318.31 274.576 318.159 274.167C318.009 273.757 317.776 273.426 317.462 273.174C317.148 272.922 316.748 272.795 316.262 272.795C315.776 272.795 315.376 272.922 315.062 273.174C314.748 273.426 314.516 273.757 314.365 274.167C314.214 274.576 314.139 275.018 314.139 275.491C314.139 275.965 314.214 276.406 314.365 276.812C314.516 277.218 314.748 277.546 315.062 277.795C315.376 278.044 315.776 278.169 316.262 278.169ZM322.228 274.734V279H321.138V271.909H322.191V273.017H322.283C322.449 272.657 322.702 272.368 323.04 272.149C323.379 271.928 323.816 271.817 324.351 271.817C324.831 271.817 325.252 271.915 325.612 272.112C325.972 272.306 326.252 272.602 326.452 272.999C326.652 273.393 326.752 273.891 326.752 274.494V279H325.662V274.568C325.662 274.011 325.518 273.577 325.228 273.266C324.939 272.952 324.542 272.795 324.037 272.795C323.69 272.795 323.379 272.871 323.105 273.022C322.834 273.172 322.62 273.393 322.463 273.682C322.306 273.971 322.228 274.322 322.228 274.734ZM333.765 273.497L332.787 273.774C332.725 273.611 332.634 273.453 332.514 273.299C332.397 273.142 332.237 273.012 332.034 272.911C331.831 272.809 331.571 272.759 331.254 272.759C330.82 272.759 330.459 272.859 330.169 273.059C329.883 273.256 329.74 273.506 329.74 273.811C329.74 274.082 329.838 274.296 330.035 274.453C330.232 274.61 330.54 274.741 330.959 274.845L332.011 275.104C332.645 275.258 333.118 275.493 333.428 275.81C333.739 276.124 333.895 276.529 333.895 277.024C333.895 277.43 333.778 277.794 333.544 278.114C333.313 278.434 332.99 278.686 332.574 278.871C332.159 279.055 331.676 279.148 331.125 279.148C330.402 279.148 329.803 278.991 329.329 278.677C328.855 278.363 328.555 277.904 328.429 277.301L329.463 277.043C329.561 277.424 329.748 277.71 330.022 277.901C330.299 278.092 330.66 278.188 331.106 278.188C331.614 278.188 332.017 278.08 332.316 277.864C332.618 277.646 332.768 277.384 332.768 277.08C332.768 276.833 332.682 276.627 332.51 276.461C332.337 276.292 332.073 276.165 331.716 276.082L330.534 275.805C329.885 275.652 329.408 275.413 329.103 275.09C328.801 274.764 328.65 274.356 328.65 273.866C328.65 273.466 328.763 273.112 328.987 272.805C329.215 272.497 329.524 272.255 329.915 272.08C330.309 271.904 330.756 271.817 331.254 271.817C331.956 271.817 332.507 271.971 332.907 272.278C333.31 272.586 333.596 272.992 333.765 273.497ZM342.275 271.909V272.832H338.6V271.909H342.275ZM339.671 270.21H340.761V276.969C340.761 277.277 340.805 277.507 340.894 277.661C340.987 277.812 341.104 277.914 341.245 277.966C341.39 278.015 341.542 278.04 341.702 278.04C341.822 278.04 341.921 278.034 341.998 278.021C342.075 278.006 342.136 277.994 342.182 277.984L342.404 278.963C342.33 278.991 342.227 279.018 342.095 279.046C341.962 279.077 341.795 279.092 341.592 279.092C341.284 279.092 340.982 279.026 340.687 278.894C340.394 278.761 340.151 278.56 339.957 278.289C339.767 278.018 339.671 277.677 339.671 277.264V270.21ZM346.718 279.148C346.078 279.148 345.516 278.995 345.033 278.691C344.553 278.386 344.178 277.96 343.907 277.412C343.639 276.864 343.505 276.224 343.505 275.491C343.505 274.753 343.639 274.108 343.907 273.557C344.178 273.006 344.553 272.578 345.033 272.274C345.516 271.969 346.078 271.817 346.718 271.817C347.358 271.817 347.918 271.969 348.399 272.274C348.882 272.578 349.257 273.006 349.525 273.557C349.796 274.108 349.931 274.753 349.931 275.491C349.931 276.224 349.796 276.864 349.525 277.412C349.257 277.96 348.882 278.386 348.399 278.691C347.918 278.995 347.358 279.148 346.718 279.148ZM346.718 278.169C347.204 278.169 347.605 278.044 347.918 277.795C348.232 277.546 348.465 277.218 348.616 276.812C348.766 276.406 348.842 275.965 348.842 275.491C348.842 275.018 348.766 274.576 348.616 274.167C348.465 273.757 348.232 273.426 347.918 273.174C347.605 272.922 347.204 272.795 346.718 272.795C346.232 272.795 345.832 272.922 345.518 273.174C345.204 273.426 344.972 273.757 344.821 274.167C344.67 274.576 344.595 275.018 344.595 275.491C344.595 275.965 344.67 276.406 344.821 276.812C344.972 277.218 345.204 277.546 345.518 277.795C345.832 278.044 346.232 278.169 346.718 278.169ZM355.251 279V271.909H356.34V279H355.251ZM355.805 270.727C355.592 270.727 355.409 270.655 355.255 270.51C355.104 270.366 355.029 270.192 355.029 269.989C355.029 269.786 355.104 269.612 355.255 269.467C355.409 269.322 355.592 269.25 355.805 269.25C356.017 269.25 356.198 269.322 356.349 269.467C356.503 269.612 356.58 269.786 356.58 269.989C356.58 270.192 356.503 270.366 356.349 270.51C356.198 270.655 356.017 270.727 355.805 270.727ZM359.425 274.734V279H358.336V271.909H359.388V273.017H359.48C359.647 272.657 359.899 272.368 360.238 272.149C360.576 271.928 361.013 271.817 361.549 271.817C362.029 271.817 362.449 271.915 362.809 272.112C363.169 272.306 363.449 272.602 363.649 272.999C363.849 273.393 363.949 273.891 363.949 274.494V279H362.86V274.568C362.86 274.011 362.715 273.577 362.426 273.266C362.136 272.952 361.739 272.795 361.235 272.795C360.887 272.795 360.576 272.871 360.302 273.022C360.031 273.172 359.817 273.393 359.66 273.682C359.504 273.971 359.425 274.322 359.425 274.734ZM370.963 273.497L369.984 273.774C369.923 273.611 369.832 273.453 369.712 273.299C369.595 273.142 369.435 273.012 369.232 272.911C369.028 272.809 368.768 272.759 368.451 272.759C368.017 272.759 367.656 272.859 367.367 273.059C367.08 273.256 366.937 273.506 366.937 273.811C366.937 274.082 367.036 274.296 367.233 274.453C367.43 274.61 367.737 274.741 368.156 274.845L369.208 275.104C369.842 275.258 370.315 275.493 370.626 275.81C370.937 276.124 371.092 276.529 371.092 277.024C371.092 277.43 370.975 277.794 370.741 278.114C370.51 278.434 370.187 278.686 369.772 278.871C369.356 279.055 368.873 279.148 368.322 279.148C367.599 279.148 367 278.991 366.526 278.677C366.052 278.363 365.752 277.904 365.626 277.301L366.66 277.043C366.759 277.424 366.945 277.71 367.219 277.901C367.496 278.092 367.857 278.188 368.304 278.188C368.811 278.188 369.215 278.08 369.513 277.864C369.815 277.646 369.966 277.384 369.966 277.08C369.966 276.833 369.879 276.627 369.707 276.461C369.535 276.292 369.27 276.165 368.913 276.082L367.731 275.805C367.082 275.652 366.605 275.413 366.3 275.09C365.999 274.764 365.848 274.356 365.848 273.866C365.848 273.466 365.96 273.112 366.185 272.805C366.412 272.497 366.722 272.255 367.113 272.08C367.507 271.904 367.953 271.817 368.451 271.817C369.153 271.817 369.704 271.971 370.104 272.278C370.507 272.586 370.793 272.992 370.963 273.497ZM375.816 271.909V272.832H372.141V271.909H375.816ZM373.212 270.21H374.302V276.969C374.302 277.277 374.346 277.507 374.436 277.661C374.528 277.812 374.645 277.914 374.786 277.966C374.931 278.015 375.083 278.04 375.243 278.04C375.363 278.04 375.462 278.034 375.539 278.021C375.616 278.006 375.677 277.994 375.723 277.984L375.945 278.963C375.871 278.991 375.768 279.018 375.636 279.046C375.503 279.077 375.336 279.092 375.133 279.092C374.825 279.092 374.523 279.026 374.228 278.894C373.935 278.761 373.692 278.56 373.498 278.289C373.308 278.018 373.212 277.677 373.212 277.264V270.21ZM379.541 279.166C379.092 279.166 378.684 279.082 378.318 278.912C377.952 278.74 377.661 278.492 377.445 278.169C377.23 277.843 377.122 277.449 377.122 276.987C377.122 276.581 377.202 276.252 377.362 275.999C377.522 275.744 377.736 275.544 378.004 275.399C378.272 275.254 378.567 275.147 378.89 275.076C379.217 275.002 379.544 274.944 379.874 274.901C380.305 274.845 380.654 274.804 380.922 274.776C381.192 274.745 381.389 274.694 381.513 274.624C381.639 274.553 381.702 274.43 381.702 274.254V274.217C381.702 273.762 381.577 273.408 381.328 273.156C381.082 272.903 380.708 272.777 380.206 272.777C379.686 272.777 379.278 272.891 378.983 273.119C378.687 273.346 378.48 273.589 378.36 273.848L377.325 273.479C377.51 273.048 377.756 272.712 378.064 272.472C378.375 272.229 378.713 272.06 379.08 271.964C379.449 271.866 379.812 271.817 380.169 271.817C380.397 271.817 380.659 271.844 380.954 271.9C381.253 271.952 381.54 272.061 381.817 272.228C382.097 272.394 382.33 272.645 382.514 272.98C382.699 273.316 382.791 273.765 382.791 274.328V279H381.702V278.04H381.646C381.573 278.194 381.449 278.358 381.277 278.534C381.105 278.709 380.875 278.858 380.589 278.982C380.303 279.105 379.954 279.166 379.541 279.166ZM379.708 278.188C380.138 278.188 380.502 278.103 380.797 277.934C381.096 277.764 381.32 277.546 381.471 277.278C381.625 277.01 381.702 276.729 381.702 276.433V275.436C381.656 275.491 381.554 275.542 381.397 275.588C381.243 275.632 381.065 275.67 380.862 275.704C380.662 275.735 380.466 275.762 380.275 275.787C380.088 275.808 379.935 275.827 379.818 275.842C379.535 275.879 379.27 275.939 379.024 276.022C378.781 276.102 378.584 276.224 378.433 276.387C378.286 276.547 378.212 276.766 378.212 277.043C378.212 277.421 378.352 277.707 378.632 277.901C378.915 278.092 379.274 278.188 379.708 278.188ZM385.869 269.545V279H384.78V269.545H385.869ZM388.954 269.545V279H387.865V269.545H388.954Z" fill="#86868B"/>
<path d="M304.375 108.125L326.25 130M326.25 130L304.375 151.875M326.25 130H273.75" stroke="black" stroke-width="1.5" stroke-linecap="round" stroke-linejoin="round"/>
</g>
<defs>
<linearGradient id="paint0_linear_4_37" x1="0" y1="0" x2="0" y2="40000" gradientUnits="userSpaceOnUse">
<stop stop-color="#F5F5F7"/>
<stop offset="1" stop-color="#E8E8ED"/>
</linearGradient>
<clipPath id="clip0_4_37">
<rect width="600" height="400" fill="white"/>
</clipPath>
</defs>
</svg>
