<svg width="20" height="22" viewBox="0 0 20 22" fill="none" xmlns="http://www.w3.org/2000/svg">
<path d="M2.6875 13.25C2.6875 14.1451 3.04308 15.0036 3.67601 15.6365C4.30895 16.2694 5.16739 16.625 6.0625 16.625H14.5C15.1584 16.6257 15.7961 16.3954 16.3022 15.9743C16.8082 15.5531 17.1505 14.9678 17.2693 14.3202C17.3882 13.6727 17.2761 13.004 16.9526 12.4306C16.6291 11.8571 16.1147 11.4154 15.499 11.1823C15.6382 10.7864 15.6639 10.3596 15.5733 9.9499C15.4826 9.54023 15.2792 9.16406 14.9861 8.86388C14.6929 8.56371 14.3217 8.35148 13.9143 8.25118C13.5069 8.15087 13.0795 8.16649 12.6805 8.29625C12.4224 7.30627 11.7892 6.4556 10.9148 5.92439C10.0405 5.39318 8.9937 5.22313 7.99616 5.45027C6.99862 5.6774 6.12866 6.28388 5.57049 7.14126C5.01232 7.99865 4.80978 9.03963 5.00575 10.0438C4.33119 10.2664 3.74402 10.6961 3.32781 11.2717C2.91159 11.8474 2.68753 12.5396 2.6875 13.25Z" stroke="black" stroke-width="1.5"/>
<path d="M8.26758 12.8125L8.2627 12.4219C8.25618 12.1908 8.28385 11.9857 8.3457 11.8066C8.41081 11.6276 8.51497 11.4648 8.6582 11.3184C8.80143 11.1686 8.98372 11.027 9.20508 10.8936C9.40039 10.7731 9.55664 10.6592 9.67383 10.5518C9.79102 10.4411 9.87402 10.3223 9.92285 10.1953C9.97493 10.0684 10.001 9.9235 10.001 9.76074V9.75098C10.001 9.56543 9.9554 9.40104 9.86426 9.25781C9.77637 9.11458 9.64941 9.00228 9.4834 8.9209C9.32064 8.83626 9.12858 8.79395 8.90723 8.79395C8.68262 8.79395 8.4873 8.83626 8.32129 8.9209C8.15527 9.00553 8.02344 9.1276 7.92578 9.28711C7.82812 9.44336 7.77279 9.62728 7.75977 9.83887L7.75 9.84375L6.73926 9.84863V9.83887C6.75553 9.47428 6.84831 9.14551 7.01758 8.85254C7.1901 8.55632 7.43913 8.32357 7.76465 8.1543C8.09017 7.98177 8.4873 7.89551 8.95605 7.89551C9.389 7.89551 9.7666 7.97526 10.0889 8.13477C10.4144 8.29102 10.6667 8.50586 10.8457 8.7793C11.028 9.04948 11.1191 9.35872 11.1191 9.70703V9.7168C11.1191 9.96745 11.0785 10.1953 10.9971 10.4004C10.9157 10.6022 10.7985 10.7845 10.6455 10.9473C10.4925 11.1068 10.307 11.2516 10.0889 11.3818C9.88053 11.5055 9.71777 11.6227 9.60059 11.7334C9.4834 11.8408 9.40039 11.9564 9.35156 12.0801C9.30599 12.2005 9.2832 12.3454 9.2832 12.5146V12.8125H8.26758ZM8.83398 15.1074C8.60938 15.1074 8.42708 15.0407 8.28711 14.9072C8.14714 14.7738 8.07715 14.598 8.07715 14.3799C8.07715 14.1585 8.14714 13.9811 8.28711 13.8477C8.42708 13.7109 8.60938 13.6426 8.83398 13.6426C9.06185 13.6426 9.24414 13.7109 9.38086 13.8477C9.51758 13.9811 9.58594 14.1585 9.58594 14.3799C9.58594 14.598 9.51758 14.7738 9.38086 14.9072C9.24414 15.0407 9.06185 15.1074 8.83398 15.1074Z" fill="black"/>
</svg>
